<?xml version="1.0" encoding="utf-8"?>
<!-- Generator: Adobe Illustrator 15.0.0, SVG Export Plug-In . SVG Version: 6.00 Build 0)  -->
<!DOCTYPE svg PUBLIC "-//W3C//DTD SVG 1.1//EN" "http://www.w3.org/Graphics/SVG/1.1/DTD/svg11.dtd">
<svg version="1.1" id="Layer_1" xmlns="http://www.w3.org/2000/svg" xmlns:xlink="http://www.w3.org/1999/xlink" x="0px" y="0px"
	 width="311.333px" height="311.334px" viewBox="0 0 311.333 311.334" enable-background="new 0 0 311.333 311.334"
	 xml:space="preserve">
<path fill="#FBB03B" d="M155.667,0C69.694,0,0,69.695,0,155.667c0,4.451,0.197,8.855,0.563,13.212l39.549-61.544l56.554-9.668
	l40.062-41.298l66.415,104.604l44.885,6.696l-38.861,26.998l32.056,33.332l-26.106,29.956l-73.378,52.752
	c4.59,0.407,9.233,0.627,13.929,0.627c85.972,0,155.667-69.694,155.667-155.667S241.639,0,155.667,0z"/>
<path fill="#FBB03B" d="M241.222,227.999l-32.056-33.332l38.861-26.998l-44.885-6.696L136.729,56.369L96.667,97.667l-56.554,9.668
	L0.563,168.879c6.321,75.191,66.08,135.167,141.174,141.828l73.378-52.752L241.222,227.999z"/>
<linearGradient id="SVGID_1_" gradientUnits="userSpaceOnUse" x1="65.6987" y1="287.9504" x2="183.0509" y2="84.6904">
	<stop  offset="0" style="stop-color:#FBB03B"/>
	<stop  offset="0.0299" style="stop-color:#FBAF3A"/>
	<stop  offset="0.611" style="stop-color:#F89A25"/>
	<stop  offset="1" style="stop-color:#F7931E"/>
</linearGradient>
<path fill="url(#SVGID_1_)" d="M234.167,228.042l-25-33.375l37.861-25.998l-43.885-7.696L135.729,57.369L96.667,97.667
	l-57.554,10.668L0.563,168.879c6.321,75.191,66.08,135.167,141.174,141.828l58.804-41.484L234.167,228.042z"/>
<g>
	<path fill="#FFFFFF" d="M186.594,188.779c-13.408,13.409-13.408,26.815-26.816,26.815c-13.406,0-26.813-13.406-40.219-26.815
		c-13.409-13.408-26.818-26.813-26.818-40.224c0-13.405,13.41-13.405,26.818-26.813c13.404-13.407-26.819-53.628-40.225-53.628
		c-13.407,0.001-40.222,40.222-40.222,40.222c0,26.814,27.549,81.175,53.628,107.257c26.081,26.083,80.444,53.63,107.259,53.63
		c0,0,40.223-26.816,40.223-40.223C240.222,215.592,200,175.369,186.594,188.779L186.594,188.779z"/>
</g>
<polygon fill="#FFFFFF" points="196.172,45.111 159.822,81.463 135.729,57.369 137.085,167.312 247.028,168.669 222.934,144.575 
	259.286,108.224 "/>
</svg>
